<svg version="1.1" xmlns="http://www.w3.org/2000/svg" xmlns:xlink="http://www.w3.org/1999/xlink" width="800" height="800"><defs/><g transform="scale(2,2)"><g id="background-9e112d1a"><rect fill="white" stroke="none" x="0" y="0" width="400" height="400" class="dcg-svg-background"/></g><g id="graphpaper-9e112d1a"><g id="grid-9e112d1a"><g><path fill="none" stroke="rgb(0,0,0)" class="dcg-svg-minor-gridline" paint-order="fill stroke markers" d=" M 14.5 0 L 14.5 400" stroke-opacity="0.2" stroke-miterlimit="10" stroke-dasharray=""/><path fill="none" stroke="rgb(0,0,0)" class="dcg-svg-minor-gridline" paint-order="fill stroke markers" d=" M 33.5 0 L 33.5 400" stroke-opacity="0.2" stroke-miterlimit="10" stroke-dasharray=""/><path fill="none" stroke="rgb(0,0,0)" class="dcg-svg-minor-gridline" paint-order="fill stroke markers" d=" M 52.5 0 L 52.5 400" stroke-opacity="0.2" stroke-miterlimit="10" stroke-dasharray=""/><path fill="none" stroke="rgb(0,0,0)" class="dcg-svg-minor-gridline" paint-order="fill stroke markers" d=" M 89.5 0 L 89.5 400" stroke-opacity="0.2" stroke-miterlimit="10" stroke-dasharray=""/><path fill="none" stroke="rgb(0,0,0)" class="dcg-svg-minor-gridline" paint-order="fill stroke markers" d=" M 108.5 0 L 108.5 400" stroke-opacity="0.2" stroke-miterlimit="10" stroke-dasharray=""/><path fill="none" stroke="rgb(0,0,0)" class="dcg-svg-minor-gridline" paint-order="fill stroke markers" d=" M 127.5 0 L 127.5 400" stroke-opacity="0.2" stroke-miterlimit="10" stroke-dasharray=""/><path fill="none" stroke="rgb(0,0,0)" class="dcg-svg-minor-gridline" paint-order="fill stroke markers" d=" M 146.5 0 L 146.5 400" stroke-opacity="0.2" stroke-miterlimit="10" stroke-dasharray=""/><path fill="none" stroke="rgb(0,0,0)" class="dcg-svg-minor-gridline" paint-order="fill stroke markers" d=" M 165.5 0 L 165.5 400" stroke-opacity="0.2" stroke-miterlimit="10" stroke-dasharray=""/><path fill="none" stroke="rgb(0,0,0)" class="dcg-svg-minor-gridline" paint-order="fill stroke markers" d=" M 183.5 0 L 183.5 400" stroke-opacity="0.2" stroke-miterlimit="10" stroke-dasharray=""/><path fill="none" stroke="rgb(0,0,0)" class="dcg-svg-minor-gridline" paint-order="fill stroke markers" d=" M 202.5 0 L 202.5 400" stroke-opacity="0.2" stroke-miterlimit="10" stroke-dasharray=""/><path fill="none" stroke="rgb(0,0,0)" class="dcg-svg-minor-gridline" paint-order="fill stroke markers" d=" M 221.5 0 L 221.5 400" stroke-opacity="0.2" stroke-miterlimit="10" stroke-dasharray=""/><path fill="none" stroke="rgb(0,0,0)" class="dcg-svg-minor-gridline" paint-order="fill stroke markers" d=" M 240.5 0 L 240.5 400" stroke-opacity="0.2" stroke-miterlimit="10" stroke-dasharray=""/><path fill="none" stroke="rgb(0,0,0)" class="dcg-svg-minor-gridline" paint-order="fill stroke markers" d=" M 259.5 0 L 259.5 400" stroke-opacity="0.2" stroke-miterlimit="10" stroke-dasharray=""/><path fill="none" stroke="rgb(0,0,0)" class="dcg-svg-minor-gridline" paint-order="fill stroke markers" d=" M 277.5 0 L 277.5 400" stroke-opacity="0.2" stroke-miterlimit="10" stroke-dasharray=""/><path fill="none" stroke="rgb(0,0,0)" class="dcg-svg-minor-gridline" paint-order="fill stroke markers" d=" M 296.5 0 L 296.5 400" stroke-opacity="0.2" stroke-miterlimit="10" stroke-dasharray=""/><path fill="none" stroke="rgb(0,0,0)" class="dcg-svg-minor-gridline" paint-order="fill stroke markers" d=" M 315.5 0 L 315.5 400" stroke-opacity="0.2" stroke-miterlimit="10" stroke-dasharray=""/><path fill="none" stroke="rgb(0,0,0)" class="dcg-svg-minor-gridline" paint-order="fill stroke markers" d=" M 334.5 0 L 334.5 400" stroke-opacity="0.2" stroke-miterlimit="10" stroke-dasharray=""/><path fill="none" stroke="rgb(0,0,0)" class="dcg-svg-minor-gridline" paint-order="fill stroke markers" d=" M 353.5 0 L 353.5 400" stroke-opacity="0.2" stroke-miterlimit="10" stroke-dasharray=""/><path fill="none" stroke="rgb(0,0,0)" class="dcg-svg-minor-gridline" paint-order="fill stroke markers" d=" M 372.5 0 L 372.5 400" stroke-opacity="0.2" stroke-miterlimit="10" stroke-dasharray=""/><path fill="none" stroke="rgb(0,0,0)" class="dcg-svg-minor-gridline" paint-order="fill stroke markers" d=" M 390.5 0 L 390.5 400" stroke-opacity="0.2" stroke-miterlimit="10" stroke-dasharray=""/><path fill="none" stroke="rgb(0,0,0)" class="dcg-svg-minor-gridline" paint-order="fill stroke markers" d=" M 0 384.5 L 400 384.5" stroke-opacity="0.2" stroke-miterlimit="10" stroke-dasharray=""/><path fill="none" stroke="rgb(0,0,0)" class="dcg-svg-minor-gridline" paint-order="fill stroke markers" d=" M 0 365.5 L 400 365.5" stroke-opacity="0.2" stroke-miterlimit="10" stroke-dasharray=""/><path fill="none" stroke="rgb(0,0,0)" class="dcg-svg-minor-gridline" paint-order="fill stroke markers" d=" M 0 346.5 L 400 346.5" stroke-opacity="0.2" stroke-miterlimit="10" stroke-dasharray=""/><path fill="none" stroke="rgb(0,0,0)" class="dcg-svg-minor-gridline" paint-order="fill stroke markers" d=" M 0 327.5 L 400 327.5" stroke-opacity="0.2" stroke-miterlimit="10" stroke-dasharray=""/><path fill="none" stroke="rgb(0,0,0)" class="dcg-svg-minor-gridline" paint-order="fill stroke markers" d=" M 0 308.5 L 400 308.5" stroke-opacity="0.2" stroke-miterlimit="10" stroke-dasharray=""/><path fill="none" stroke="rgb(0,0,0)" class="dcg-svg-minor-gridline" paint-order="fill stroke markers" d=" M 0 290.5 L 400 290.5" stroke-opacity="0.2" stroke-miterlimit="10" stroke-dasharray=""/><path fill="none" stroke="rgb(0,0,0)" class="dcg-svg-minor-gridline" paint-order="fill stroke markers" d=" M 0 271.5 L 400 271.5" stroke-opacity="0.2" stroke-miterlimit="10" stroke-dasharray=""/><path fill="none" stroke="rgb(0,0,0)" class="dcg-svg-minor-gridline" paint-order="fill stroke markers" d=" M 0 252.5 L 400 252.5" stroke-opacity="0.2" stroke-miterlimit="10" stroke-dasharray=""/><path fill="none" stroke="rgb(0,0,0)" class="dcg-svg-minor-gridline" paint-order="fill stroke markers" d=" M 0 233.5 L 400 233.5" stroke-opacity="0.2" stroke-miterlimit="10" stroke-dasharray=""/><path fill="none" stroke="rgb(0,0,0)" class="dcg-svg-minor-gridline" paint-order="fill stroke markers" d=" M 0 214.5 L 400 214.5" stroke-opacity="0.2" stroke-miterlimit="10" stroke-dasharray=""/><path fill="none" stroke="rgb(0,0,0)" class="dcg-svg-minor-gridline" paint-order="fill stroke markers" d=" M 0 177.5 L 400 177.5" stroke-opacity="0.2" stroke-miterlimit="10" stroke-dasharray=""/><path fill="none" stroke="rgb(0,0,0)" class="dcg-svg-minor-gridline" paint-order="fill stroke markers" d=" M 0 158.5 L 400 158.5" stroke-opacity="0.2" stroke-miterlimit="10" stroke-dasharray=""/><path fill="none" stroke="rgb(0,0,0)" class="dcg-svg-minor-gridline" paint-order="fill stroke markers" d=" M 0 139.5 L 400 139.5" stroke-opacity="0.2" stroke-miterlimit="10" stroke-dasharray=""/><path fill="none" stroke="rgb(0,0,0)" class="dcg-svg-minor-gridline" paint-order="fill stroke markers" d=" M 0 120.5 L 400 120.5" stroke-opacity="0.2" stroke-miterlimit="10" stroke-dasharray=""/><path fill="none" stroke="rgb(0,0,0)" class="dcg-svg-minor-gridline" paint-order="fill stroke markers" d=" M 0 101.5 L 400 101.5" stroke-opacity="0.2" stroke-miterlimit="10" stroke-dasharray=""/><path fill="none" stroke="rgb(0,0,0)" class="dcg-svg-minor-gridline" paint-order="fill stroke markers" d=" M 0 83.5 L 400 83.5" stroke-opacity="0.2" stroke-miterlimit="10" stroke-dasharray=""/><path fill="none" stroke="rgb(0,0,0)" class="dcg-svg-minor-gridline" paint-order="fill stroke markers" d=" M 0 64.5 L 400 64.5" stroke-opacity="0.2" stroke-miterlimit="10" stroke-dasharray=""/><path fill="none" stroke="rgb(0,0,0)" class="dcg-svg-minor-gridline" paint-order="fill stroke markers" d=" M 0 45.5 L 400 45.5" stroke-opacity="0.2" stroke-miterlimit="10" stroke-dasharray=""/><path fill="none" stroke="rgb(0,0,0)" class="dcg-svg-minor-gridline" paint-order="fill stroke markers" d=" M 0 26.5 L 400 26.5" stroke-opacity="0.2" stroke-miterlimit="10" stroke-dasharray=""/><path fill="none" stroke="rgb(0,0,0)" class="dcg-svg-minor-gridline" paint-order="fill stroke markers" d=" M 0 7.5 L 400 7.5" stroke-opacity="0.2" stroke-miterlimit="10" stroke-dasharray=""/><path fill="none" stroke="rgb(0,0,0)" class="dcg-svg-major-gridline" paint-order="fill stroke markers" d=" M 165.5 0 L 165.5 400" stroke-opacity="0.2500000000000001" stroke-miterlimit="10" stroke-dasharray=""/><path fill="none" stroke="rgb(0,0,0)" class="dcg-svg-major-gridline" paint-order="fill stroke markers" d=" M 259.5 0 L 259.5 400" stroke-opacity="0.2500000000000001" stroke-miterlimit="10" stroke-dasharray=""/><path fill="none" stroke="rgb(0,0,0)" class="dcg-svg-major-gridline" paint-order="fill stroke markers" d=" M 353.5 0 L 353.5 400" stroke-opacity="0.2500000000000001" stroke-miterlimit="10" stroke-dasharray=""/><path fill="none" stroke="rgb(0,0,0)" class="dcg-svg-major-gridline" paint-order="fill stroke markers" d=" M 0 384.5 L 400 384.5" stroke-opacity="0.2500000000000001" stroke-miterlimit="10" stroke-dasharray=""/><path fill="none" stroke="rgb(0,0,0)" class="dcg-svg-major-gridline" paint-order="fill stroke markers" d=" M 0 290.5 L 400 290.5" stroke-opacity="0.2500000000000001" stroke-miterlimit="10" stroke-dasharray=""/><path fill="none" stroke="rgb(0,0,0)" class="dcg-svg-major-gridline" paint-order="fill stroke markers" d=" M 0 101.5 L 400 101.5" stroke-opacity="0.2500000000000001" stroke-miterlimit="10" stroke-dasharray=""/><path fill="none" stroke="rgb(0,0,0)" class="dcg-svg-major-gridline" paint-order="fill stroke markers" d=" M 0 7.5 L 400 7.5" stroke-opacity="0.2500000000000001" stroke-miterlimit="10" stroke-dasharray=""/></g></g><g id="axis-9e112d1a"><g id="yaxis-9e112d1a"><title>Y axis</title><g><path fill="none" stroke="rgb(0,0,0)" class="dcg-svg-axis-line" paint-order="fill stroke markers" d=" M 71 0 L 71 400" stroke-opacity="0.9" stroke-miterlimit="10" stroke-width="1.5" stroke-dasharray=""/></g></g><g id="xaxis-9e112d1a"><title>X axis</title><g><path fill="none" stroke="rgb(0,0,0)" class="dcg-svg-axis-line" paint-order="fill stroke markers" d=" M 0 196 L 400 196" stroke-opacity="0.9" stroke-miterlimit="10" stroke-width="1.5" stroke-dasharray=""/></g></g><g><g class="dcg-svg-axis-value"><text fill="none" stroke="#ffffff" font-family="Arial" font-size="14px" font-style="normal" font-weight="normal" text-decoration="normal" x="61.73516623812304" y="211.82854484352194" text-anchor="middle" stroke-miterlimit="2" stroke-width="3" stroke-dasharray="">0</text><text fill="#000000" stroke="none" font-family="Arial" font-size="14px" font-style="normal" font-weight="normal" text-decoration="normal" x="61.73516623812304" y="211.82854484352194" text-anchor="middle">0</text></g><g class="dcg-svg-axis-value"><text fill="none" stroke="#ffffff" font-family="Arial" font-size="14px" font-style="normal" font-weight="normal" text-decoration="normal" x="165.0527949864004" y="211.82854484352194" text-anchor="middle" stroke-miterlimit="2" stroke-width="3" stroke-dasharray="">5</text><text fill="#000000" stroke="none" font-family="Arial" font-size="14px" font-style="normal" font-weight="normal" text-decoration="normal" x="165.0527949864004" y="211.82854484352194" text-anchor="middle">5</text></g><g class="dcg-svg-axis-value"><text fill="none" stroke="#ffffff" font-family="Arial" font-size="14px" font-style="normal" font-weight="normal" text-decoration="normal" x="259.1704420452246" y="211.82854484352194" text-anchor="middle" stroke-miterlimit="2" stroke-width="3" stroke-dasharray="">10</text><text fill="#000000" stroke="none" font-family="Arial" font-size="14px" font-style="normal" font-weight="normal" text-decoration="normal" x="259.1704420452246" y="211.82854484352194" text-anchor="middle">10</text></g><g class="dcg-svg-axis-value"><text fill="none" stroke="#ffffff" font-family="Arial" font-size="14px" font-style="normal" font-weight="normal" text-decoration="normal" x="353.28808910404877" y="211.82854484352194" text-anchor="middle" stroke-miterlimit="2" stroke-width="3" stroke-dasharray="">15</text><text fill="#000000" stroke="none" font-family="Arial" font-size="14px" font-style="normal" font-weight="normal" text-decoration="normal" x="353.28808910404877" y="211.82854484352194" text-anchor="middle">15</text></g><g class="dcg-svg-axis-value"><text fill="none" stroke="#ffffff" font-family="Arial" font-size="14px" font-style="normal" font-weight="normal" text-decoration="normal" x="53.33520285921679" y="388.06383896116745" text-anchor="middle" stroke-miterlimit="2" stroke-width="3" stroke-dasharray="">-10</text><text fill="#000000" stroke="none" font-family="Arial" font-size="14px" font-style="normal" font-weight="normal" text-decoration="normal" x="53.33520285921679" y="388.06383896116745" text-anchor="middle">-10</text></g><g class="dcg-svg-axis-value"><text fill="none" stroke="#ffffff" font-family="Arial" font-size="14px" font-style="normal" font-weight="normal" text-decoration="normal" x="57.53518454866992" y="293.9461919023447" text-anchor="middle" stroke-miterlimit="2" stroke-width="3" stroke-dasharray="">-5</text><text fill="#000000" stroke="none" font-family="Arial" font-size="14px" font-style="normal" font-weight="normal" text-decoration="normal" x="57.53518454866992" y="293.9461919023447" text-anchor="middle">-5</text></g><g class="dcg-svg-axis-value"><text fill="none" stroke="#ffffff" font-family="Arial" font-size="14px" font-style="normal" font-weight="normal" text-decoration="normal" x="61.73516623812304" y="105.71089778469921" text-anchor="middle" stroke-miterlimit="2" stroke-width="3" stroke-dasharray="">5</text><text fill="#000000" stroke="none" font-family="Arial" font-size="14px" font-style="normal" font-weight="normal" text-decoration="normal" x="61.73516623812304" y="105.71089778469921" text-anchor="middle">5</text></g><g class="dcg-svg-axis-value dcg-svg-offcenter-axis-value"><text fill="none" stroke="#ffffff" font-family="Arial" font-size="14px" font-style="normal" font-weight="normal" text-decoration="normal" x="57.53518454866992" y="13.808" text-anchor="middle" stroke-miterlimit="2" stroke-width="3" stroke-dasharray="">10</text><text fill="#000000" stroke="none" font-family="Arial" font-size="14px" font-style="normal" font-weight="normal" text-decoration="normal" x="57.53518454866992" y="13.808" text-anchor="middle">10</text></g></g></g></g><g id="expressions-9e112d1a"><g id="sketch-9e112d1a"><title>Expression 4</title><path fill="#000000" stroke="none" paint-order="stroke fill markers" d="" fill-opacity="0.4"/><g><path fill="none" stroke="#000000" class="dcg-svg-curve" paint-order="fill stroke markers" d=" M -1.4210854715202004e-14 370.37859811336534 L -1.4210854715202004e-14 370.37859811336534 L 6.54296875 372.89952384419223 L 13.183593749999986 375.17769357510645 L 19.921874999999993 377.2115267846031 L 26.7578125 378.9983822612704 L 33.59374999999999 380.5148427293128 L 40.527343749999986 381.78354276467604 L 47.460937499999986 382.7864073461709 L 54.394531249999986 383.5277019108776 L 61.425781249999986 384.0154859907451 L 68.45703124999999 384.23952605766203 L 75.48828124999999 384.2007641241486 L 82.51953124999999 383.89903753120467 L 89.453125 383.34275515693275 L 96.38671875 382.52722969483676 L 103.3203125 381.44904067728953 L 110.15625 380.1244044005151 L 116.99218749999999 378.5343116047741 L 123.73046875 376.70031695654495 L 130.46875 374.5934324156249 L 137.109375 372.24057101229744 L 143.65234375 369.6429379363483 L 150.09765625 366.80058825509525 L 156.4453125 363.7123386390256 L 162.6953125 360.3756425715768 L 168.84765625 356.78642015780645 L 174.8046875 353.0034888233363 L 180.6640625 348.9652775358072 L 186.42578125 344.66252937798095 L 191.9921875 340.16533011693224 L 197.4609375 335.3896609511866 L 202.73437499999997 330.4135866822596 L 207.91015624999997 325.1343436669979 L 212.890625 319.63756826949543 L 217.67578125 313.917586721981 L 222.265625 307.9652305619151 L 226.66015625000003 301.76669245438427 L 230.76171875000003 295.4589338625624 L 234.47265624999997 289.2300364377287 L 237.890625 282.95957305914396 L 241.015625 276.6751000178834 L 243.84765625 270.4099958241895 L 246.38671875 264.20611697943247 L 248.6328125 258.11777470978757 L 250.68359375 251.90455128526406 L 252.44140624999997 245.9004420101269 L 254.00390625000003 239.81958225124941 L 255.37109375 233.64909570779926 L 256.54296875 227.36161695518695 L 257.421875 221.61793880019061 L 258.10546875 216.01546806889434 L 258.59375 210.74382639965864 L 258.984375 204.3879906319076 L 259.08203125 201.7891016488093 L 259.1704420452246 196.02054484352195" stroke-linecap="round" stroke-linejoin="round" stroke-miterlimit="10" stroke-width="2.5" stroke-dasharray=""/></g><path fill="#000000" stroke="none" paint-order="stroke fill markers" d="" fill-opacity="0.4"/><g><path fill="none" stroke="#000000" class="dcg-svg-curve" paint-order="fill stroke markers" d=" M -1.4210854715202004e-14 21.66249157367858 L -1.4210854715202004e-14 21.66249157367858 L 6.54296875 19.141565842851662 L 13.183593749999986 16.863396111937476 L 19.921874999999993 14.829562902440784 L 26.7578125 13.042707425773528 L 33.59374999999999 11.526246957731047 L 40.527343749999986 10.257546922367823 L 47.460937499999986 9.254682340872932 L 54.394531249999986 8.51338777616624 L 61.425781249999986 8.025603696298816 L 68.45703124999999 7.801563629381889 L 75.48828124999999 7.840325562895316 L 82.51953124999999 8.142052155839252 L 89.453125 8.698334530111197 L 96.38671875 9.51385999220716 L 103.3203125 10.59204900975439 L 110.15625 11.916685286528804 L 116.99218749999999 13.506778082269818 L 123.73046875 15.34077273049894 L 130.46875 17.447657271419047 L 137.109375 19.800518674746456 L 143.65234375 22.398151750695547 L 150.09765625 25.240501431948644 L 156.4453125 28.32875104801829 L 162.6953125 31.665447115467117 L 168.84765625 35.25466952923742 L 174.8046875 39.03760086370764 L 180.6640625 43.075812151236704 L 186.42578125 47.37856030906289 L 191.9921875 51.875759570111654 L 197.4609375 56.65142873585725 L 202.73437499999997 61.627503004784245 L 207.91015624999997 66.90674602004606 L 212.890625 72.40352141754843 L 217.67578125 78.1235029650629 L 222.265625 84.07585912512877 L 226.66015625000003 90.27439723265965 L 230.76171875000003 96.58215582448149 L 234.47265624999997 102.81105324931522 L 237.890625 109.0815166278999 L 241.015625 115.3659896691605 L 243.84765625 121.63109386285441 L 246.38671875 127.83497270761144 L 248.6328125 133.92331497725633 L 250.68359375 140.13653840177983 L 252.44140624999997 146.14064767691698 L 254.00390625000003 152.22150743579448 L 255.37109375 158.39199397924463 L 256.54296875 164.67947273185695 L 257.421875 170.42315088685328 L 258.10546875 176.0256216181496 L 258.59375 181.29726328738525 L 258.984375 187.6530990551363 L 259.08203125 190.2519880382346 L 259.1704420452246 196.02054484352195" stroke-linecap="round" stroke-linejoin="round" stroke-miterlimit="10" stroke-width="2.5" stroke-dasharray=""/></g></g><g id="sketch-9e112d1a"><title>Expression 5</title><path fill="#000000" stroke="none" class="dcg-svg-region" paint-order="stroke fill markers" d=" M 112.82144137817683 12.504702550474349 L -3 38.940190739504075 L -3 353.1008989475398 L 112.8214413781768 379.53638713656954 L 240.52928776803273 277.6927780891793 L 240.52928776803276 114.34831159786468 L 112.82144137817683 12.504702550474349 L 112.82144137817683 12.504702550474349" fill-opacity="0.2"/></g><g id="sketch-9e112d1a"><title>Tolerance</title><path fill="#2d70b3" stroke="none" paint-order="stroke fill markers" d="" fill-opacity="0.4"/><g><path fill="none" stroke="#2d70b3" class="dcg-svg-curve" paint-order="fill stroke markers" d=" M 240.34691263345974 196.02054484352195 L 240.34691263345974 196.02054484352195 L 259.1704420452246 196.02054484352195" stroke-linecap="round" stroke-linejoin="round" stroke-miterlimit="10" stroke-width="2.5" stroke-dasharray=""/></g><path fill="#2d70b3" stroke="none" class="dcg-svg-point" paint-order="stroke fill markers" d=" M 244.09691263345974 196.02054484352195 A 3.75 3.75 0 1 1 244.0969107584599 196.01679484414694 L 242.22191263345974 196.02054484352195 A 1.875 1.875 0 1 0 242.22191169595982 196.02241984320943 Z"/><path fill="white" stroke="none" class="dcg-svg-point" paint-order="stroke fill markers" d=" M 242.22191263345974 196.02054484352195 A 1.875 1.875 0 1 1 242.22191169595982 196.01866984383446 Z"/><path fill="#2d70b3" stroke="none" class="dcg-svg-point" paint-order="stroke fill markers" d=" M 262.9204420452246 196.02054484352195 A 3.75 3.75 0 1 1 262.92044017022477 196.01679484414694 L 261.0454420452246 196.02054484352195 A 1.875 1.875 0 1 0 261.0454411077247 196.02241984320943 Z"/><path fill="white" stroke="none" class="dcg-svg-point" paint-order="stroke fill markers" d=" M 261.0454420452246 196.02054484352195 A 1.875 1.875 0 1 1 261.0454411077247 196.01866984383446 Z"/></g></g><g id="labels-9e112d1a"/><g id="labels-9e112d1a"/></g></svg>