<svg xmlns="http://www.w3.org/2000/svg" viewBox="0 0 32 32" width="32" height="32" fill="#c68d57">
<path d="M25.8 6.5C23.5 2.6 20 1.4 15.5 3.0C12.5 4.1 19.3 8.8 21 11.5C22.8 14.2 22.0 18.5 24.5 18.5C29.5 18.5 27.9 10 25.8 6.5Z"/>
<path d="M4.0 15.5C4.0 11.5 7.4 8 9.9 8C13.5 8 9.9 11.7 9.9 14.5C9.9 18 11 23.5 9.0 23.5C7.0 23.5 4.0 19.5 4.0 15.5Z"/>
<path d="M20.4 23.0C20.4 19.0 19.9 15.5 16.9 15.0C13.4 14.4 14.9 18.2 14.9 21.0C14.9 24.5 10.9 29.0 14.4 29.5C18.3 30.1 20.4 27.0 20.4 23.0Z"/>
</svg>
