<?xml version="1.0" encoding="utf-8"?>
<svg width="32" height="32" viewBox="0 0 32 32" xmlns="http://www.w3.org/2/svg" fill="currentColor">
<path d="M28.8 11.6C28.7 11.5 28.6 11.4 28.6 11.2C28.7 8.9 28.4 6.7 27.6 4.6C27.5 4.3 27.4 4.2 27.1 4.3C26.5 4.5 25.8 4.6 25.2 4.8C23.5 5.5 21.9 6.4 20.4 7.4C20.2 7.5 20.0 7.5 19.8 7.5C17.3 7.1 14.8 7.1 12.3 7.5C12.0 7.5 11.7 7.4 11.5 7.3C9.7 6.2 7.9 5.0 5.8 4.5C4.1 4.0 4.5 3.9 4.0 5.5C3.4 7.3 3.2 9.3 3.3 11.2C3.3 11.4 3.2 11.5 3.1 11.7C2.4 12.6 1.8 13.5 1.4 14.7C0.77 16.8 0.92 19.0 1.3 21.2C2.2 25.4 5.0 28.4 9.3 29.1C11.5 29.5 13.7 29.5 15.8 29.7C18.1 29.5 20.2 29.5 22.3 29.2C25.9 28.6 28.6 26.7 29.9 23.2C30.4 22.0 30.7 20.7 30.8 19.4C31.2 16.5 30.7 13.9 28.8 11.6ZM26.8 23.5C26.4 25.2 25.3 26.4 23.6 27.1C22.0 27.7 20.2 27.9 18.5 28.0C17.6 28.1 16.8 28.0 15.9 28.0C13.6 28.1 11.3 28.0 9.1 27.3C6.3 26.5 5.1 24.9 5.0 22.0C5.0 20.9 5.1 19.9 5.6 19.0C6.6 17.1 8.2 16.5 10.2 16.4C11.3 16.4 12.4 16.5 13.4 16.6C15.7 16.8 18.0 16.6 20.3 16.5C21.3 16.4 22.3 16.4 23.2 16.6C25.3 16.9 26.9 19.07 27.0 21.4C27.0 22.1 26.9 22.8 26.8 23.5Z"/>
<path d="M9.5 19.6C8.9 20.2 8.7 21.0 8.69 21.8C8.69 22.8 9.0 23.7 9.5 24.3C10.3 25.1 11.3 25.0 12.1 24.2C13.2 23.0 13.2 20.8 12.1 19.6C11.3 18.8 10.3 18.8 9.5 19.6Z"/>
<path d="M20.0 19.5C18.7 20.6 18.7 23.2 20.0 24.4C20.7 25.0 21.7 25.0 22.4 24.3C23.0 23.6 23.2 22.8 23.3 21.9C23.2 21.0 23.0 20.2 22.4 19.5C21.7 18.8 20.7 18.8 20.0 19.5Z"/>
</svg>
